HIERARCHY
ROOT joint_Root
{
  OFFSET 0 0 0
  CHANNELS 6 Xposition Yposition Zposition Zrotation Xrotation Yrotation
  JOINT Hips
  {
    OFFSET 0.0408292 93.9915 0.0639531
    CHANNELS 6 Xposition Yposition Zposition Zrotation Xrotation Yrotation
    JOINT Spine
    {
      OFFSET 15.7357 0 0
      CHANNELS 6 Xposition Yposition Zposition Zrotation Xrotation Yrotation
      JOINT Chest
      {
        OFFSET 8.98455 -0.406207 0
        CHANNELS 6 Xposition Yposition Zposition Zrotation Xrotation Yrotation
        JOINT Neck
        {
          OFFSET 16.3773 0 0
          CHANNELS 6 Xposition Yposition Zposition Zrotation Xrotation Yrotation
          JOINT Head
          {
            OFFSET 6.45672 0 0
            CHANNELS 6 Xposition Yposition Zposition Zrotation Xrotation Yrotation
            End Site
            {
              OFFSET 10 0 0
            }
          }
        }
        JOINT Shoulder_L
        {
          OFFSET 12.9942 -0.242716 4.98039
          CHANNELS 6 Xposition Yposition Zposition Zrotation Xrotation Yrotation
          JOINT UpperArm_L
          {
            OFFSET 5.34809 0 0
            CHANNELS 6 Xposition Yposition Zposition Zrotation Xrotation Yrotation
            JOINT LowerArm_L
            {
              OFFSET 24.3286 1.87007e-05 0
              CHANNELS 6 Xposition Yposition Zposition Zrotation Xrotation Yrotation
              JOINT Hand_L
              {
                OFFSET 22.2916 0 0
                CHANNELS 6 Xposition Yposition Zposition Zrotation Xrotation Yrotation
                End Site
                {
                  OFFSET 5 0 0
                }
              }
            }
          }
        }
        JOINT Shoulder_R
        {
          OFFSET 12.9945 -0.242716 -4.98039
          CHANNELS 6 Xposition Yposition Zposition Zrotation Xrotation Yrotation
          JOINT UpperArm_R
          {
            OFFSET -5.34813 0 0
            CHANNELS 6 Xposition Yposition Zposition Zrotation Xrotation Yrotation
            JOINT LowerArm_R
            {
              OFFSET -24.3289 0.000322201 0
              CHANNELS 6 Xposition Yposition Zposition Zrotation Xrotation Yrotation
              JOINT Hand_R
              {
                OFFSET -22.2915 -0.000108084 0
                CHANNELS 6 Xposition Yposition Zposition Zrotation Xrotation Yrotation
                End Site
                {
                  OFFSET -5 0 0
                }
              }
            }
          }
        }
      }
    }
    JOINT UpperLeg_L
    {
      OFFSET -2.19248 -6.46944 0
      CHANNELS 6 Xposition Yposition Zposition Zrotation Xrotation Yrotation
      JOINT LowerLeg_L
      {
        OFFSET 39.0811 0 -1.23785e-05
        CHANNELS 6 Xposition Yposition Zposition Zrotation Xrotation Yrotation
        JOINT Foot_L
        {
          OFFSET 40.9854 0 -1.26872e-05
          CHANNELS 6 Xposition Yposition Zposition Zrotation Xrotation Yrotation
          JOINT Toes_L
          {
            OFFSET 11.7543 0 0
            CHANNELS 6 Xposition Yposition Zposition Zrotation Xrotation Yrotation
            End Site
            {
              OFFSET 5 0 0
            }
          }
        }
      }
    }
    JOINT UpperLeg_R
    {
      OFFSET -2.19251 6.46944 0
      CHANNELS 6 Xposition Yposition Zposition Zrotation Xrotation Yrotation
      JOINT LowerLeg_R
      {
        OFFSET -39.0811 0 0
        CHANNELS 6 Xposition Yposition Zposition Zrotation Xrotation Yrotation
        JOINT Foot_R
        {
          OFFSET -40.9854 0 0
          CHANNELS 6 Xposition Yposition Zposition Zrotation Xrotation Yrotation
          JOINT Toes_R
          {
            OFFSET -11.7543 0 0
            CHANNELS 6 Xposition Yposition Zposition Zrotation Xrotation Yrotation
            End Site
            {
              OFFSET -5 0 0
            }
          }
        }
      }
    }
  }
}
MOTION
Frames:	8
Frame Time:	0.0333333
0 0 78.817 0 0 -0 -1.55042 92.2387 0.317572 89.0809 1.26083 3.1572 15.7357 5.1072e-06 -5.51765e-07 73.8834 86.5378 -75.841 8.98455 -0.406207 -4.3199e-07 -0.343392 -0.863247 0.703108 16.3773 -1.3905e-06 -6.99897e-07 -1.81016 -0.0474293 1.50062 6.45672 -1.25837e-06 -1.02172e-07 -0.381992 3.58797 -0.0323741 12.9942 -0.242716 4.98039 -89.8785 8.00236 -87.288 5.34809 -7.22636e-06 -6.2814e-07 -67.7039 -19.7032 6.46548 24.3286 1.87007e-05 4.90208e-06 -3.04928e-05 7.16782e-06 -23.9623 22.2916 -9.88446e-07 4.63217e-06 15.8794 26.3466 2.1317 12.9945 -0.242716 -4.98039 89.5341 9.30586 -83.6685 -5.34813 -1.25947e-06 -3.79883e-06 -67.2344 -16.9 0.0534241 -24.3289 0.000322201 -8.65921e-06 0.000903433 -0.00020983 -19.2143 -22.2915 -0.000108084 -4.47941e-06 11.7313 22.1443 -9.3544 -2.19248 -6.46944 -1.22533e-07 -177.853 3.9665 -20.5924 39.0811 -6.73843e-06 -1.23785e-05 1.89114e-05 4.83826e-06 55.8705 40.9854 -6.48686e-06 -1.26872e-05 2.34438 -7.53332 -49.4063 11.7543 -2.30145e-07 3.05095e-06 -1.28542 -1.74493 -23.5559 -2.19251 6.46944 -1.45247e-06 -173.459 2.26156 176.062 -39.0811 1.11022e-15 0 -1.4901e-15 -3.97569e-16 17.5885 -40.9854 7.72618e-06 5.99936e-06 6.24727 3.30888 -60.3327 -11.7543 -5.6619e-06 -5.58687e-06 -0.096908 -1.46951 -18.4538 
0 0 84.0715 0 0 -0 -1.23156 92.6817 -0.482099 89.632 -1.47088 2.95733 15.7357 5.1072e-06 -5.51765e-07 97.3195 86.3608 -98.6076 8.98455 -0.406207 -4.3199e-07 -0.238285 0.519821 -0.398736 16.3773 -1.3905e-06 -6.99897e-07 -1.69296 -0.0398535 1.34836 6.45672 -1.25837e-06 -1.02172e-07 -0.520518 3.93077 0.0725511 12.9942 -0.242716 4.98039 -89.9207 7.74193 -87.0207 5.34809 -7.22636e-06 -6.2814e-07 -65.6291 -22.3379 11.2437 24.3286 1.87007e-05 4.90208e-06 -3.04585e-05 7.21421e-06 -24.1366 22.2916 -9.88446e-07 4.63217e-06 15.8239 25.543 1.59799 12.9945 -0.242716 -4.98039 89.6138 9.10564 -84.1275 -5.34813 -1.25947e-06 -3.79883e-06 -69.2432 -15.3713 -5.03443 -24.3289 0.000322201 -8.65921e-06 0.000887508 -0.000230224 -21.1474 -22.2915 -0.000108084 -4.47941e-06 12.7157 23.1294 -10.5858 -2.19248 -6.46944 -1.22534e-07 -178.113 3.63659 -24.3788 39.0811 -6.73843e-06 -1.23785e-05 1.88676e-05 4.19273e-06 49.5682 40.9854 -6.48686e-06 -1.26872e-05 2.2671 -9.95465 -53.5211 11.7543 -2.30145e-07 3.05095e-06 -1.37375 -2.30343 -23.2055 -2.19251 6.46944 -1.45247e-06 -174.544 2.1182 -178.527 -39.0811 8.88178e-16 0 -4.7673e-09 2.10628e-08 12.7533 -40.9854 7.72618e-06 5.99936e-06 6.24645 5.99662 -60.3452 -11.7543 -5.6619e-06 -5.58687e-06 -0.065021 -1.38725 -18.6419 
0 0 89.3259 0 0 -0 -0.861738 92.7129 -1.30187 89.7453 -4.19217 2.51096 15.7357 5.1072e-06 -5.51765e-07 113.36 85.6864 -113.429 8.98455 -0.406207 -4.3199e-07 0.035893 1.6915 -1.26812 16.3773 -1.3905e-06 -6.99897e-07 -1.96702 -0.0351452 1.02342 6.45672 -1.25837e-06 -1.02172e-07 -0.778671 4.47711 0.0160981 12.9942 -0.242716 4.98039 -89.9635 7.66132 -86.7383 5.34809 -7.22636e-06 -6.2814e-07 -63.7657 -25.3734 15.6807 24.3286 1.87007e-05 4.90208e-06 -3.03563e-05 7.34779e-06 -24.6425 22.2916 -9.88446e-07 4.63217e-06 15.9446 25.4928 0.939479 12.9945 -0.242716 -4.98039 89.6905 8.8094 -84.568 -5.34813 -1.25947e-06 -3.79883e-06 -70.8797 -13.9503 -9.90693 -24.3289 0.000322201 -8.65921e-06 0.000898952 -0.000251748 -23.2439 -22.2915 -0.000108084 -4.47941e-06 14.3213 24.1081 -12.3549 -2.19248 -6.46944 -1.22534e-07 -177.586 3.25105 -26.7194 39.0811 -6.73843e-06 -1.23785e-05 1.87818e-05 3.29888e-06 40.282 40.9854 -6.48686e-06 -1.26872e-05 0.984943 -11.0843 -55.8975 11.7543 -2.30145e-07 3.05095e-06 -1.39047 -2.43016 -23.1 -2.19251 6.46944 -1.45247e-06 -175.459 2.01731 -173.711 -39.0811 -1.77636e-15 1.42109e-14 -1.37206e-09 9.24668e-09 8.44019 -40.9854 7.72618e-06 5.99936e-06 6.09916 8.62654 -60.3354 -11.7543 -5.6619e-06 -5.58687e-06 -0.0162029 -1.31691 -19.0352 
0 0 94.5804 0 0 -0 -0.480949 92.2987 -2.00794 89.3992 -6.51468 1.78742 15.7357 5.1072e-06 -5.51765e-07 124.304 85.1415 -122.781 8.98455 -0.406207 -4.3199e-07 0.428058 2.6222 -1.92578 16.3773 -1.3905e-06 -6.99897e-07 -2.47421 -0.0290521 0.672533 6.45672 -1.25837e-06 -1.02172e-07 -1.07314 5.0107 -0.0980194 12.9942 -0.242716 4.98039 -90.0098 7.66667 -86.4312 5.34809 -7.22636e-06 -6.2814e-07 -61.8299 -28.154 19.8366 24.3286 1.87007e-05 4.90208e-06 -3.02118e-05 7.52508e-06 -25.3235 22.2916 -9.88446e-07 4.63217e-06 16.3365 25.5166 0.150598 12.9945 -0.242716 -4.98039 89.746 8.46938 -84.884 -5.34813 -1.25947e-06 -3.79883e-06 -72.1816 -12.6257 -14.3055 -24.3289 0.000322201 -8.65921e-06 0.00088061 -0.000270123 -25.0886 -22.2915 -0.000108084 -4.47941e-06 15.9054 25.2225 -13.9227 -2.19248 -6.46944 -1.22534e-07 -176.429 2.6466 -27.928 39.0811 -6.73843e-06 -1.23785e-05 1.86212e-05 2.31251e-06 29.3388 40.9854 -6.48686e-06 -1.26872e-05 -0.427146 -11.6296 -57.5156 11.7543 -2.30145e-07 3.05095e-06 -1.34441 -2.35027 -22.9143 -2.19251 6.46944 -1.45247e-06 -176.132 2.11789 -170.045 -39.0811 0 0 -4.72783e-10 4.55738e-09 5.92268 -40.9854 7.72618e-06 5.99936e-06 5.96007 10.9344 -60.8255 -11.7543 -5.6619e-06 -5.58687e-06 0.0839131 -1.15413 -19.8028 
0 0 99.8349 0 0 -0 -0.143317 91.4922 -2.51835 88.7774 -8.08291 0.832249 15.7357 5.1072e-06 -5.51765e-07 133.365 84.9312 -130.207 8.98455 -0.406207 -4.3199e-07 0.864571 3.28721 -2.42208 16.3773 -1.3905e-06 -6.99897e-07 -3.11756 -0.0222059 0.407917 6.45672 -1.25837e-06 -1.02172e-07 -1.3311 5.31624 -0.159533 12.9942 -0.242716 4.98039 -90.0577 7.73905 -86.1147 5.34809 -7.22636e-06 -6.2814e-07 -59.7643 -30.2582 23.4731 24.3286 1.87007e-05 4.90208e-06 -3.00494e-05 7.71091e-06 -26.0501 22.2916 -9.88446e-07 4.63217e-06 16.724 25.4556 -0.533747 12.9945 -0.242716 -4.98039 89.7724 8.21833 -85.0318 -5.34813 -1.25947e-06 -3.79883e-06 -73.1203 -11.5652 -17.7269 -24.3289 0.000322201 -8.65921e-06 0.000861885 -0.000286997 -26.8354 -22.2915 -0.000108084 -4.47941e-06 17.0622 26.0182 -14.7224 -2.19248 -6.46944 -1.22534e-07 -175.135 1.92464 -28.5995 39.0811 -6.73843e-06 -1.23785e-05 1.8303e-05 1.3931e-06 18.5818 40.9854 -6.48686e-06 -1.26872e-05 -1.67552 -11.7574 -59.3551 11.7543 -2.30145e-07 3.05095e-06 -1.32187 -2.60399 -22.3483 -2.19251 6.46944 -1.45247e-06 -176.609 2.41667 -167.57 -39.0811 0 0 -3.85847e-10 3.98137e-09 5.53544 -40.9854 7.72618e-06 5.99936e-06 5.97958 12.5673 -61.8104 -11.7543 -5.6619e-06 -5.58687e-06 0.254164 -0.967179 -21.2439 
0 0 105.089 0 0 -0 0.109605 90.5269 -2.73722 88.1275 -9.09056 -0.144219 15.7357 5.1072e-06 -5.51765e-07 142.19 84.8256 -137.637 8.98455 -0.406207 -4.3199e-07 1.18535 3.85751 -2.87782 16.3773 -1.3905e-06 -6.99897e-07 -3.81821 -0.0214269 0.321267 6.45672 -1.25837e-06 -1.02172e-07 -1.44874 5.3074 -0.118629 12.9942 -0.242716 4.98039 -90.1012 7.85312 -85.832 5.34809 -7.22636e-06 -6.2814e-07 -57.6204 -31.994 26.3297 24.3286 1.87007e-05 4.90208e-06 -2.99275e-05 7.84227e-06 -26.572 22.2916 -9.88446e-07 4.63217e-06 16.93 25.6151 -1.14496 12.9945 -0.242716 -4.98039 89.7756 8.16585 -85.0484 -5.34813 -1.25947e-06 -3.79883e-06 -73.6388 -10.8414 -19.8487 -24.3289 0.000322201 -8.65921e-06 0.000876223 -0.000300291 -28.2534 -22.2915 -0.000108084 -4.47941e-06 18.0077 26.4129 -15.2945 -2.19248 -6.46944 -1.22534e-07 -174.037 1.41972 -29.1071 39.0811 -6.73843e-06 -1.23785e-05 1.75335e-05 1.40283e-06 10.2655 40.9854 -6.48686e-06 -1.26872e-05 -3.55496 -12.079 -61.3943 11.7543 -2.30145e-07 3.05095e-06 -1.24491 -2.64534 -21.7391 -2.19251 6.46944 -1.45247e-06 -177.055 2.77829 -165.437 -39.0811 0 1.42109e-14 -4.92659e-10 4.68388e-09 6.00439 -40.9854 7.72618e-06 5.99936e-06 6.1164 13.6515 -62.2364 -11.7543 -5.6619e-06 -5.58687e-06 0.510548 -0.89451 -23.831 
0 0 110.344 0 0 -0 0.311579 89.6265 -2.4638 87.693 -9.77439 -0.845605 15.7357 5.1072e-06 -5.51765e-07 150.812 84.722 -145.399 8.98455 -0.406207 -4.3199e-07 1.27328 4.38401 -3.29803 16.3773 -1.3905e-06 -6.99897e-07 -4.49473 -0.0355137 0.451983 6.45672 -1.25837e-06 -1.02172e-07 -1.43618 5.06846 0.0288072 12.9942 -0.242716 4.98039 -90.1379 7.91697 -85.5936 5.34809 -7.22636e-06 -6.2814e-07 -55.5212 -33.6057 28.3979 24.3286 1.87007e-05 4.90208e-06 -2.98768e-05 7.89508e-06 -26.784 22.2916 -9.88446e-07 4.63217e-06 16.9379 26.0759 -1.59802 12.9945 -0.242716 -4.98039 89.7636 8.32234 -84.9837 -5.34813 -1.25947e-06 -3.79883e-06 -73.8424 -10.6167 -20.5416 -24.3289 0.000322201 -8.65921e-06 0.000866311 -0.00030792 -29.0859 -22.2915 -0.000108084 -4.47941e-06 18.7026 26.9255 -15.5918 -2.19248 -6.46944 -1.22534e-07 -173.523 1.29191 -29.5518 39.0811 -6.73843e-06 -1.23785e-05 1.67971e-05 2.00854e-06 6.81887 40.9854 -6.48686e-06 -1.26872e-05 -3.90095 -12.0401 -62.4979 11.7543 -2.30145e-07 3.05095e-06 -1.08379 -2.00899 -21.6629 -2.19251 6.46944 -1.45247e-06 -177.705 2.94748 -162.813 -39.0811 0 0 -5.1378e-10 4.81644e-09 6.08884 -40.9854 7.72618e-06 5.99936e-06 6.04752 14.336 -60.4581 -11.7543 -5.6619e-06 -5.58687e-06 1.0371 -0.637019 -28.6404 
0 0 115.598 0 0 -0 0.515619 88.9126 -1.54686 87.7242 -10.1874 -0.951558 15.7357 5.1072e-06 -5.51765e-07 157.23 84.6484 -151.829 8.98455 -0.406207 -4.3199e-07 1.07567 4.74632 -3.5854 16.3773 -1.3905e-06 -6.99897e-07 -5.10735 -0.0702355 0.786001 6.45672 -1.25837e-06 -1.02172e-07 -1.28171 4.76449 0.302159 12.9942 -0.242716 4.98039 -90.1765 7.88005 -85.3387 5.34809 -7.22636e-06 -6.2814e-07 -53.7042 -34.7069 29.8105 24.3286 1.87007e-05 4.90208e-06 -2.9861e-05 7.91134e-06 -26.8495 22.2916 -9.88446e-07 4.63217e-06 16.6962 26.4236 -1.66839 12.9945 -0.242716 -4.98039 89.7335 8.61178 -84.8179 -5.34813 -1.25947e-06 -3.79883e-06 -73.7841 -10.8114 -19.699 -24.3289 0.000322201 -8.65921e-06 0.000861524 -0.000311475 -29.479 -22.2915 -0.000108084 -4.47941e-06 19.1065 27.6186 -15.8918 -2.19248 -6.46944 -1.22534e-07 -174.045 1.49543 -30.8282 39.0811 -6.73843e-06 -1.23785e-05 1.76178e-05 1.54579e-06 11.1658 40.9854 -6.48686e-06 -1.26872e-05 -3.57244 -11.0167 -62.7103 11.7543 -2.30145e-07 3.05095e-06 -1.16339 -1.94325 -22.3603 -2.19251 6.46944 -1.45247e-06 -178.779 2.69667 -160.134 -39.0811 0 0 -7.26715e-10 6.06454e-09 6.83319 -40.9854 7.72618e-06 5.99936e-06 5.22137 14.6402 -55.602 -11.7543 -5.6619e-06 -5.58687e-06 2.35939 0.81007 -36.624 
